<svg xmlns="http://www.w3.org/2000/svg" width="360" height="420" viewBox="0 0 360 420" role="img" aria-labelledby="title desc">
  <title id="title">KHQR placeholder code</title>
  <desc id="desc">Placeholder KHQR payment image for event booking.</desc>
  <rect width="360" height="420" rx="18" fill="#ffffff"/>
  <rect width="360" height="76" rx="18" fill="#e51b23"/>
  <path d="M0 58h360v18H0z" fill="#e51b23"/>
  <text x="30" y="49" font-family="Arial, Helvetica, sans-serif" font-size="30" font-weight="800" fill="#ffffff">KHQR</text>
  <text x="30" y="112" font-family="Arial, Helvetica, sans-serif" font-size="16" font-weight="700" fill="#0f172a">Refined Travel</text>
  <text x="30" y="138" font-family="Arial, Helvetica, sans-serif" font-size="14" fill="#475569">Scan with your banking app</text>
  <rect x="30" y="162" width="300" height="220" rx="10" fill="#f8fafc" stroke="#cbd5e1"/>
  <g fill="#0f172a">
    <rect x="54" y="186" width="52" height="52"/>
    <rect x="66" y="198" width="28" height="28" fill="#ffffff"/>
    <rect x="74" y="206" width="12" height="12"/>
    <rect x="254" y="186" width="52" height="52"/>
    <rect x="266" y="198" width="28" height="28" fill="#ffffff"/>
    <rect x="274" y="206" width="12" height="12"/>
    <rect x="54" y="306" width="52" height="52"/>
    <rect x="66" y="318" width="28" height="28" fill="#ffffff"/>
    <rect x="74" y="326" width="12" height="12"/>
    <rect x="126" y="186" width="16" height="16"/>
    <rect x="158" y="186" width="32" height="16"/>
    <rect x="206" y="186" width="16" height="16"/>
    <rect x="142" y="218" width="16" height="16"/>
    <rect x="174" y="218" width="48" height="16"/>
    <rect x="126" y="250" width="32" height="16"/>
    <rect x="190" y="250" width="16" height="16"/>
    <rect x="238" y="250" width="48" height="16"/>
    <rect x="126" y="282" width="16" height="16"/>
    <rect x="158" y="282" width="32" height="16"/>
    <rect x="222" y="282" width="16" height="16"/>
    <rect x="270" y="282" width="16" height="16"/>
    <rect x="126" y="314" width="48" height="16"/>
    <rect x="206" y="314" width="32" height="16"/>
    <rect x="254" y="314" width="16" height="16"/>
    <rect x="142" y="346" width="16" height="16"/>
    <rect x="190" y="346" width="64" height="16"/>
    <rect x="286" y="346" width="16" height="16"/>
  </g>
  <text x="180" y="404" text-anchor="middle" font-family="Arial, Helvetica, sans-serif" font-size="12" font-weight="700" fill="#64748b">PLACEHOLDER - replace with real KHQR</text>
</svg>
